<svg version='1.1' xmlns='http://www.w3.org/2000/svg'>
  <style type="text/css">
    .style0{fill:#6D6E71;}
    .style1{fill:none;stroke:#6D6E71;stroke-linecap:round;stroke-miterlimit:10;}
    .style2{fill:none;stroke:#ABABAB;stroke-linecap:round;stroke-miterlimit:10;}
    .style3{fill:#5A5A5A;}
  </style>
  <symbol id='window-query' viewBox='0 0 100 100'><path d='M10 10h80v80H10z' fill='#EDF0F1'/><path d='M10 10h80v16.6H10z' fill='#546A79'/><circle cx='18.3' cy='18.3' r='4.1' fill='#ED7061'/><circle cx='30.7' cy='18.3' r='4.1' fill='#EFC41B'/><circle cx='43.1' cy='18.3' r='4.1' fill='#4FBA6E'/><path d='M22.4 37.6H79V79H22.4z' fill='#FFF'/><path d='M50 68.5c0 .5-.2 1-.7 1.4-.4.4-1.1.6-1.8.6-.8 0-1.4-.2-1.9-.6-.5-.4-.7-.9-.7-1.4v-.9c0-.5.2-1 .7-1.4.5-.4 1.1-.6 1.9-.6.7 0 1.3.2 1.8.6.5.4.7.9.7 1.4v.9zm5.1-13.8c-.3.6-.7 1.1-1.1 1.5-.4.4-.9.8-1.4 1.1-.5.3-1 .7-1.4 1-.4.3-.8.7-1 1.2-.3.4-.4.9-.4 1.5v.6c0 .4-.2.8-.6 1.2-.4.4-.9.6-1.5.7h-.1c-.6 0-1.1-.2-1.5-.5-.4-.4-.6-.8-.6-1.3 0-1.1.2-2 .4-2.7.3-.7.7-1.4 1.1-1.9.4-.5.9-1 1.4-1.3.5-.4 1-.7 1.4-1 .4-.3.7-.7 1-1 .3-.3.4-.7.4-1.2 0-.8-.2-1.4-.7-1.8-.5-.4-1.1-.6-1.9-.6-.5 0-1 0-1.4.1-.4.1-.7.2-1 .3-.3.1-.6.3-.8.6-.3.3-.5.6-.8 1-.3.4-.6.6-1.1.8-.5.2-1.1.1-1.7-.1-.5-.3-.8-.6-1-1-.1-.4-.1-.8 0-1.2.1-.3.3-.8.6-1.3s.8-1 1.5-1.5c.6-.5 1.4-.9 2.3-1.2.9-.3 2.1-.5 3.3-.5 1.3 0 2.4.2 3.2.6.9.4 1.6.9 2.2 1.5.5.6 1 1.3 1.2 2.1.2.8.4 1.6.4 2.4 0 .6-.1 1.3-.4 1.9z' fill='#546A79'/></symbol>
  <symbol id='calculator' viewBox='0 0 16 16'><path d='M12.9 16H3c-.6 0-1-.4-1-1V1c0-.6.4-1 1-1h9.9c.6 0 1 .4 1 1v14c0 .6-.4 1-1 1zM3 .9c-.1 0-.1 0-.1.1v14c0 .1.1.1.1.1h9.9c.1 0 .1-.1.1-.1V1c0-.1-.1-.1-.1-.1H3z' class='style3'/><path d='M11.8 4H4.2c-.1 0-.2-.1-.2-.2V2.2c0-.1.1-.2.2-.2h7.6c.1 0 .2.1.2.2v1.5c0 .2-.1.3-.2.3z' class='style3'/><circle cx='5' cy='7' r='1' class='style3'/><circle cx='8' cy='7' r='1' class='style3'/><circle cx='11' cy='7' r='1' class='style3'/><circle cx='5' cy='10' r='1' class='style3'/><circle cx='8' cy='10' r='1' class='style3'/><circle cx='11' cy='10' r='1' class='style3'/><circle cx='5' cy='13' r='1' class='style3'/><circle cx='8' cy='13' r='1' class='style3'/><circle cx='11' cy='13' r='1' class='style3'/></symbol>
  <symbol id='adserver' viewBox='0 0 16 16'><path d='M1,5v3h14V5H1z M3,7H2V6h1V7z M5,7H4V6h1V7z M7,7H6V6h1V7z M13.4,7.1c-0.3,0-0.6-0.3-0.6-0.6 c0-0.3,0.3-0.6,0.6-0.6c0.3,0,0.6,0.3,0.6,0.6C14,6.8,13.8,7.1,13.4,7.1z M8,12L8,12v2H1v1h14v-1H8V12z M11.4,1H4.6L1.9,4h12.3 L11.4,1z M1,12h14V9H1V12z M13.4,9.8c0.3,0,0.6,0.3,0.6,0.6c0,0.3-0.3,0.6-0.6,0.6c-0.3,0-0.6-0.3-0.6-0.6 C12.8,10.1,13.1,9.8,13.4,9.8z M6,10h1v1H6V10z M4,10h1v1H4V10z M2,10l1,0v1l-1,0V10z' class='style3'/></symbol>
  <symbol id='ellipsis' viewBox='0 0 16 16'><circle cx='8' cy='8' r='1.5' class='style3'/><circle cx='13' cy='8' r='1.5' fill='#5A5A5A'/><circle cx='3' cy='8' r='1.5' fill='#5A5A5A'/></symbol>
  <symbol id='close-x' viewBox='0 0 16 16'><path d='M1 13.8L6.8 8 1.2 2.2 2.6 1 8 6.6 13.4 1l1.2 1.2-5.4 5.6 5.8 6-1.2 1.2L8 9.2 2.2 15 1 13.8z'/></symbol>
  <symbol id='list-bullet' viewBox='0 0 16 16'><path d='M14.4 12H5.8c-.3 0-.6.3-.6.6s.3.6.6.6h8.6c.3 0 .6-.3.6-.6s-.3-.6-.6-.6zm0-4.6H5.8c-.3 0-.6.3-.6.6s.3.6.6.6h8.6c.3 0 .6-.3.6-.6s-.3-.6-.6-.6zM5.8 4h8.6c.3 0 .6-.3.6-.6s-.3-.6-.6-.6H5.8c-.3 0-.6.3-.6.6s.3.6.6.6zM3.1 2.1H1.6c-.3 0-.6.3-.6.6v1.5c0 .3.3.6.6.6h1.5c.3 0 .6-.3.6-.6V2.7c-.1-.3-.3-.6-.6-.6zm0 4.6H1.6c-.3 0-.6.2-.6.6v1.5c0 .3.3.6.6.6h1.5c.3 0 .6-.3.6-.6V7.3c-.1-.4-.3-.6-.6-.6zm0 4.6H1.6c-.3 0-.6.3-.6.6v1.5c0 .3.3.6.6.6h1.5c.3 0 .6-.3.6-.6v-1.5c-.1-.4-.3-.6-.6-.6z' fill='#5A5A5A'/></symbol>
  <symbol id='placement-generic' viewBox='0 0 16 16'><path d='M7.3 4.8H3c-.1 0-.3.2-.3.3v2.6c0 .2.2.3.3.3h4.3c.2 0 .3-.1.3-.3V5.1c0-.1-.1-.3-.3-.3zm0 4.1H3c-.1 0-.3.1-.3.3v2.6c0 .2.1.3.3.3h4.3c.2 0 .3-.1.3-.3V9.2c0-.2-.1-.3-.3-.3zM7 11.5H3.3v-2H7v2zm5.9-6.7H8.7c-.2 0-.3.2-.3.3v2.6c0 .2.1.3.3.3H13c.2 0 .3-.1.3-.3V5.1c-.1-.1-.2-.3-.4-.3zm-.3 2.6H9v-2h3.7v2zm.3 1.5H8.7c-.2 0-.3.1-.3.3v2.6c0 .2.1.3.3.3H13c.2 0 .3-.1.3-.3V9.2c-.1-.2-.2-.3-.4-.3zm-.3 2.6H9v-2h3.7v2z' fill='#5A5A5A'/><path d='M14.5 1.9h-13c-.3 0-.5.2-.5.5v11.3c0 .3.2.5.5.5h13c.3 0 .5-.2.5-.5V2.4c0-.3-.2-.5-.5-.5zM2 13.1V3.7h12v9.5H2z' fill='#5A5A5A'/></symbol>
  <symbol id='calendar' viewBox='0 0 50 50'><path d='M40.5 4h-3.7v3.3c0 1.3-1 2.3-2.3 2.3-1.3 0-2.3-1-2.3-2.3V4H17.8v3.3c0 1.3-1 2.3-2.3 2.3s-2.3-1-2.3-2.3V4H9.5C7 4 5 6 5 8.5v35.9c0 2.5 2 4.4 4.5 4.4h31c2.5 0 4.5-2 4.5-4.4V8.5C45 6 43 4 40.5 4zm1.6 40.3c0 .9-.7 1.6-1.6 1.6h-31c-.9 0-1.6-.7-1.6-1.6V15.1H42v29.2z' fill='#5A5A5A'/><path d='M15.5 8.2c.5 0 .9-.4.9-.8V2c0-.5-.4-.8-.9-.8s-.9.4-.9.8v5.3c.1.5.4.9.9.9zm19 0c.5 0 .9-.4.9-.8V2c0-.5-.4-.8-.9-.8s-.9.4-.9.8v5.3c0 .5.4.9.9.9zM37 20h3v3h-3zm-4.5 0h3v3h-3zM28 20h3v3h-3zm-4.5 0h3v3h-3zM19 20h3v3h-3zm18 6h3v3h-3zm-4.5 0h3v3h-3zM28 26h3v3h-3zm-4.5 0h3v3h-3zM19 26h3v3h-3zm-4.5 0h3v3h-3zM10 26h3v3h-3zm27 6h3v3h-3zm-4.5 0h3v3h-3zM28 32h3v3h-3zm-4.5 0h3v3h-3zM19 32h3v3h-3zm-4.5 0h3v3h-3zM10 32h3v3h-3zm18 6h3v3h-3zm-4.5 0h3v3h-3zM19 38h3v3h-3zm-4.5 0h3v3h-3zM10 38h3v3h-3z' fill='#5A5A5A'/></symbol>
  <symbol id='calendar-empty' viewBox='0 0 50 50'><path d='M40.5 4h-3.7v3.3c0 1.3-1 2.3-2.3 2.3-1.3 0-2.3-1-2.3-2.3V4H17.8v3.3c0 1.3-1 2.3-2.3 2.3s-2.3-1-2.3-2.3V4H9.5C7 4 5 6 5 8.5v35.9c0 2.5 2 4.4 4.5 4.4h31c2.5 0 4.5-2 4.5-4.4V8.5C45 6 43 4 40.5 4zm1.6 40.3c0 .9-.7 1.6-1.6 1.6h-31c-.9 0-1.6-.7-1.6-1.6V15.1H42v29.2z' fill='#ABE7E1'/><path d='M15.5 8.2c.5 0 .9-.4.9-.8V2c0-.5-.4-.8-.9-.8s-.9.4-.9.8v5.3c.1.5.4.9.9.9zm19 0c.5 0 .9-.4.9-.8V2c0-.5-.4-.8-.9-.8s-.9.4-.9.8v5.3c0 .5.4.9.9.9zM37 20h3v3h-3zm-4.5 0h3v3h-3zM28 20h3v3h-3zm-4.5 0h3v3h-3zM19 20h3v3h-3zm18 6h3v3h-3zm-4.5 0h3v3h-3zM28 26h3v3h-3zm-4.5 0h3v3h-3zM19 26h3v3h-3zm-4.5 0h3v3h-3zM10 26h3v3h-3zm27 6h3v3h-3zm-4.5 0h3v3h-3zM28 32h3v3h-3zm-4.5 0h3v3h-3zM19 32h3v3h-3zm-4.5 0h3v3h-3zM10 32h3v3h-3zm18 6h3v3h-3zm-4.5 0h3v3h-3zM19 38h3v3h-3zm-4.5 0h3v3h-3zM10 38h3v3h-3z' fill='#ABE7E1'/></symbol>
  <symbol id='graph-forecast' viewBox='0 0 16 16'><path d='M3.4 7.8c-.4 0-.7.3-.7.7v3.3c0 .4.3.7.7.7h1.2c.4 0 .7-.3.7-.7V8.5c0-.4-.3-.7-.7-.7H3.4zm3.9 1.7c-.4 0-.7.3-.7.7v1.6c0 .4.3.7.7.7h1.2c.4 0 .7-.3.7-.7v-1.6c0-.4-.3-.7-.7-.7H7.3zm5.1-3.6h-1.2c-.4 0-.7.3-.7.7v5.2c0 .4.3.7.7.7h1.2c.4 0 .7-.3.7-.7V6.5c0-.3-.3-.6-.7-.6zm2 7.5H1.6c-.3 0-.6.3-.6.6s.3.6.6.6h12.9c.3 0 .6-.3.6-.6-.1-.4-.4-.6-.7-.6zM2.5 6.3l1.4-1.4 3.8 2h.1c.1 0 .1 0 .2-.1L12.3 3l.4.4s.1 0 .1-.1l.1-.1s.4-1 .6-1.7v-.1h-.1l-1.7.6s-.1 0-.1.1c0 0-.1.1-.1.2l.3.3-4 3.7-3.8-2c-.1-.1-.2 0-.3 0L2.1 5.9c-.1.1-.1.2 0 .4.1.1.3.1.4 0z' fill='#5A5A5A'/></symbol>
  <symbol id='document-with-plus' viewBox='0 0 100 100'><path fill='#ABE7E1' d='M20 14.8c0-2.7 2.1-4.8 4.8-4.8H60l20 16.8v58.4c0 2.7-2.1 4.8-4.8 4.8H24.8c-2.7 0-4.8-2.1-4.8-4.8V14.8z'/><path fill='#FFF' d='M60 10.1v12c0 2.7 2.1 4.8 4.8 4.8H80L60 10.1zm1.1 38.5h-9.7v-9.7c0-.8-.6-1.4-1.4-1.4s-1.4.6-1.4 1.4v9.7h-9.7c-.8 0-1.4.6-1.4 1.4s.6 1.4 1.4 1.4h9.7v9.7c0 .8.6 1.4 1.4 1.4s1.4-.6 1.4-1.4v-9.7h9.7c.8 0 1.4-.6 1.4-1.4s-.7-1.4-1.4-1.4z'/> </symbol>
  <symbol id='document-with-close' viewBox="0 0 30.5 40.7" style="enable-background:new 0 0 30.5 40.7;"><g><g><g><path fill="#4FAAC9" d="M0,2.4C0,1.1,1.1,0,2.4,0h17.9l10.2,8.6v29.7c0,1.3-1.1,2.4-2.4,2.4H2.4c-1.3,0-2.4-1.1-2.4-2.4V2.4z"/></g><g><path fill="#FFFFFF" d="M20.4,0v6.1c0,1.3,1.1,2.4,2.4,2.4h7.7L20.4,0z"/></g></g><path fill="#FFFFFF" d="M11.8,24.9l3.5-3.5l3.5,3.5c0.3,0.3,0.7,0.3,1,0c0.3-0.3,0.3-0.7,0-1l-3.5-3.5l3.5-3.5c0.3-0.3,0.3-0.7,0-1c-0.3-0.3-0.7-0.3-1,0l-3.5,3.5l-3.5-3.5c-0.3-0.3-0.7-0.3-1,0s-0.3,0.7,0,1l3.5,3.5l-3.5,3.5c-0.3,0.3-0.3,0.7,0,1C11,25.1,11.5,25.1,11.8,24.9z"/></g></symbol>
  <symbol id='classifications' viewBox='0 0 16 16'><path class="style3" d="m13 0.01452-9.8-0.007898c-0.9 2e-7 -1.6 0.7009-1.6 1.58v12.83c0 0.87 0.74 1.58 1.6 1.58h9.8c0.9 0 1.6-0.7108 1.6-1.58v-12.83c0-0.8824-0.74-1.583-1.6-1.583zm0.76 14.81-11 0.06713v-6.22l11-0.02666zm0-7.306h-11v-6.121h11z"/><path d="m6.388 2.971v1.44h0.0036v-1.44h-0.0036zm3.718 0v1.44h0.0036v-1.44h-0.0036zm-3.599 1.177v0.1859h3.599v-0.1859h-3.599z" stroke="#5a5a5a" stroke-width=".7769" fill="none"/><path d="m6.388 10.27v1.44h0.0036v-1.44h-0.0036zm3.719 0v1.44h0.0036v-1.44h-0.0036zm-3.599 1.177v0.1859h3.599v-0.1859h-3.599z" stroke="#5a5a5a" stroke-width=".7770" fill="none"/></symbol>
  <symbol id='tick' viewBox='0 0 16 16'><path d="M12.7 3.5c-.3-.2-.7-.2-.9.1l-5.6 7.3-2-2.4c-.3-.3-.7-.3-1-.1-.2.2-.3.6 0 .9l2.6 3.1c.1.1.3.2.5.2s.4-.1.5-.3l6.1-8c.2-.2.1-.6-.2-.8z"/></symbol>
  <symbol id='auto' viewBox='0 0 16 16'><path  d="M15.8,10l-2.3-3.1c-0.1-0.1-0.2-0.1-0.3-0.1S13.1,6.7,13,6.8L10.7,10c-0.1,0.1-0.1,0.2,0,0.4c0.1,0.1,0.2,0.2,0.3,0.2h1.3c-0.3,0.5-0.6,0.9-1,1.2c-1,0.8-2.2,1.2-3.5,1.1c-1.2-0.1-2.4-0.7-3.2-1.6c-0.3-0.3-0.8-0.4-1.1-0.1C3,11.4,3,11.9,3.3,12.3c1.1,1.3,2.6,2,4.3,2.2c0.2,0,0.4,0,0.6,0c1.5,0,3-0.5,4.1-1.5c0.8-0.7,1.4-1.5,1.8-2.5h1.5c0.1,0,0.2-0.1,0.3-0.2C15.9,10.2,15.9,10.1,15.8,10z"/><path  d="M3.2,9.2l2.3-3.1c0.1-0.1,0.1-0.2,0-0.4C5.5,5.7,5.3,5.6,5.2,5.6H3.9C4.9,4,6.6,3.1,8.5,3.2c1.3,0.1,2.4,0.7,3.2,1.6C12,5.2,12.5,5.2,12.9,5c0.3-0.3,0.4-0.8,0.1-1.1c-1.1-1.3-2.6-2-4.3-2.2C5.8,1.4,3.2,3,2.2,5.6H0.7c-0.1,0-0.2,0.1-0.3,0.2c-0.1,0.1,0,0.2,0,0.4l2.3,3.1c0.1,0.1,0.2,0.1,0.3,0.1C3.1,9.4,3.2,9.3,3.2,9.2z"/></symbol>
  <symbol id='locked' viewBox='0 0 16 16'><path class="style0" d="M8.2,10.8c-0.5,0-0.8,0.4-0.8,0.8v1.6H9v-1.6C9,11.1,8.6,10.8,8.2,10.8z"/><path class="style0" d="M13.1,6.3h-0.9c0,0,0-0.1,0-0.1V4.3C12.3,2,10.3,0,8,0C5.6,0,3.7,2,3.7,4.3v1.9c0,0,0,0.1,0,0.1H3.2c-0.8,0-1.4,0.6-1.4,1.4v6.8c0,0.8,0.6,1.4,1.4,1.4h9.9c0.8,0,1.4-0.6,1.4-1.4V7.7C14.5,6.9,13.9,6.3,13.1,6.3z M5.9,6.2V4.3c0-1.2,0.9-2.1,2.1-2.1c1.2,0,2.1,0.9,2.1,2.1v1.9c0,0,0,0.1,0,0.1H5.9C5.9,6.2,5.9,6.2,5.9,6.2z M13.4,14.5c0,0.2-0.2,0.3-0.3,0.3H3.2c-0.2,0-0.3-0.2-0.3-0.3V7.7c0-0.2,0.2-0.3,0.3-0.3h9.9c0.2,0,0.3,0.2,0.3,0.3V14.5z"/><path class="style3" d="M13.6-10.1H5.5c0,0-0.1,0.1-0.1,0.1L2.4-8.8h11.2c0.3,0,0.6-0.3,0.6-0.6C14.3-9.8,14-10.1,13.6-10.1z"/><path class="style3" d="M16.8-23.1l-2.6-2.6c-0.2-0.2-0.5-0.2-0.7,0L2-14.1c0,0-0.1,0.1-0.1,0.2L0.1-9.6c-0.1,0.2,0,0.4,0.1,0.5C0.3-9,0.5-8.9,0.6-8.9c0.1,0,0.1,0,0.2,0l2.7-1.1l0,0l1.6-0.6c0.1,0,0.1-0.1,0.2-0.1l11.6-11.6c0.1-0.1,0.1-0.2,0.1-0.4C17-22.9,16.9-23,16.8-23.1z M4.6-11.6l-1.7,0.7l-0.8-0.8l0.7-1.7l11.2-11.2l0.8,0.8L4.2-13.1c-0.1,0.1-0.1,0.3,0,0.4c0,0,0.1,0.1,0.2,0.1c0.1,0,0.1,0,0.2-0.1l10.6-10.6l0.6,0.6L4.6-11.6z"/></symbol>
  <symbol id='custom' viewBox='0 0 16 16'><path class="style0" d="M8.1,35.5c-0.5,0-0.8,0.4-0.8,0.8v1.6h1.6v-1.6C8.9,35.9,8.6,35.5,8.1,35.5z"/><path class="style0" d="M13.1,31h-0.9c0,0,0-0.1,0-0.1v-1.9c0-2.4-1.9-4.3-4.3-4.3c-2.4,0-4.3,1.9-4.3,4.3v1.9c0,0,0,0.1,0,0.1H3.2c-0.8,0-1.4,0.6-1.4,1.4v6.8c0,0.8,0.6,1.4,1.4,1.4h9.9c0.8,0,1.4-0.6,1.4-1.4v-6.8C14.5,31.7,13.9,31,13.1,31z M5.9,30.9v-1.9C5.9,27.9,6.8,27,8,27c1.2,0,2.1,0.9,2.1,2.1v1.9c0,0,0,0.1,0,0.1H5.8C5.9,31,5.9,31,5.9,30.9z M13.4,39.3c0,0.2-0.2,0.3-0.3,0.3H3.2c-0.2,0-0.3-0.2-0.3-0.3v-6.8c0-0.2,0.2-0.3,0.3-0.3h9.9c0.2,0,0.3,0.2,0.3,0.3V39.3z"/><path class="style3" d="M12.8,14.8H5.1c0,0-0.1,0-0.1,0.1L2.2,16h10.5c0.3,0,0.6-0.3,0.6-0.6C13.3,15,13.1,14.8,12.8,14.8z"/><path class="style3" d="M15.7,2.6l-2.4-2.4c-0.2-0.2-0.5-0.2-0.7,0L1.8,11c0,0-0.1,0.1-0.1,0.2l-1.6,4c-0.1,0.2,0,0.4,0.1,0.5c0.1,0.1,0.2,0.1,0.3,0.1c0.1,0,0.1,0,0.2,0l2.5-1l0,0l1.5-0.6c0.1,0,0.1-0.1,0.2-0.1L15.7,3.2c0.1-0.1,0.1-0.2,0.1-0.3C15.9,2.8,15.8,2.6,15.7,2.6z M4.3,13.3L2.7,14l-0.8-0.8l0.6-1.6L13,1.2L13.8,2l-9.9,9.9c-0.1,0.1-0.1,0.2,0,0.3c0,0,0.1,0.1,0.2,0.1c0.1,0,0.1,0,0.2-0.1l9.9-9.9l0.6,0.6L4.3,13.3z"/></symbol>
  <symbol id='select-arrow' viewBox='0 0 16 16'><path class="style0" d="M8.4,10.8l3.4-4.7c0.1-0.2,0.1-0.4,0-0.6c-0.1-0.2-0.3-0.3-0.5-0.3H4.5C4.3,5.2,4.1,5.3,4,5.5C4,5.5,4,5.6,4,5.7C4,5.8,4,6,4.1,6.1l3.4,4.7C7.6,10.9,7.8,11,8,11C8.2,11,8.3,10.9,8.4,10.8z"/></symbol>
  <symbol id='sponsorship'  viewBox='0 0 16 16'><path class="style0" d="M0.3,8.7l4.9,0.8c0.1,0,0.1,0,0.2,0L7.7,8c0.1,0,0.1-0.1,0.1-0.1s0-0.1,0-0.2L6,5.6c0-0.1-0.1-0.1-0.2-0.1L1,4.7c-0.1,0-0.3,0.1-0.3,0.2L0.1,8.4C0.1,8.5,0.1,8.7,0.3,8.7z M5.9,7C6.3,7,6.5,7.3,6.5,7.7C6.4,8,6.1,8.2,5.7,8.1C5.4,8.1,5.1,7.8,5.2,7.4C5.2,7.1,5.5,6.9,5.9,7z"/><g><g><path class="style0" d="M8.6,13h0.7c0.1,0,0.2-0.1,0.2-0.2c0-0.1-0.1-0.2-0.2-0.2H8.6c-0.1,0-0.2,0.1-0.2,0.2C8.4,12.9,8.5,13,8.6,13z"/></g><g><path class="style0" d="M10.7,13.4H8.6c-0.1,0-0.2,0.1-0.2,0.2s0.1,0.2,0.2,0.2h2.1c0.1,0,0.2-0.1,0.2-0.2S10.8,13.4,10.7,13.4z"/></g><g><path class="style0" d="M10.7,14.2H8.6c-0.1,0-0.2,0.1-0.2,0.2c0,0.1,0.1,0.2,0.2,0.2h2.1c0.1,0,0.2-0.1,0.2-0.2C10.9,14.2,10.8,14.2,10.7,14.2z"/></g><g><path class="style0" d="M15.9,9.6l-1.2-2.1c-0.1-0.1-0.2-0.2-0.3-0.2H8.5c-0.1,0-0.2,0.1-0.3,0.2L7,9.6c0,0,0,0,0,0c0,0,0,0,0,0.1c0,0,0,0,0,0c0,0,0,0,0,0.1c0,0,0,0,0,0c0,0,0,0,0,0v5.9c0,0.2,0.1,0.3,0.3,0.3h8.4c0.2,0,0.3-0.1,0.3-0.3V9.8c0,0,0,0,0,0C16,9.7,16,9.6,15.9,9.6z M15.4,15.4H7.5v-5.3h2.6V9.5H7.8L8.7,8h2.2l-0.3,1.5v2.6h1.8V9.5L12.1,8h2.2l0.9,1.5h-2.4v0.6h2.6V15.4z"/></g></g></symbol>
  <symbol id='placement' viewBox='0 0 16 16'><path class="style0" d="M-23.8,18l4.9,0.8c0.1,0,0.1,0,0.2,0l2.3-1.4c0.1,0,0.1-0.1,0.1-0.1c0-0.1,0-0.1,0-0.2L-18,15 c0-0.1-0.1-0.1-0.2-0.1l-4.9-0.8c-0.1,0-0.3,0.1-0.3,0.2l-0.6,3.5C-24,17.9-23.9,18-23.8,18z M-18.2,16.3c0.4,0.1,0.6,0.4,0.5,0.7 c-0.1,0.3-0.4,0.5-0.7,0.5c-0.4-0.1-0.6-0.4-0.5-0.7C-18.8,16.5-18.5,16.3-18.2,16.3z"/> <g> <g> <path class="st0" d="M-15.5,22.3h0.7c0.1,0,0.2-0.1,0.2-0.2s-0.1-0.2-0.2-0.2h-0.7c-0.1,0-0.2,0.1-0.2,0.2S-15.6,22.3-15.5,22.3z" /> </g> <g> <path class="st0" d="M-13.3,22.7h-2.1c-0.1,0-0.2,0.1-0.2,0.2c0,0.1,0.1,0.2,0.2,0.2h2.1c0.1,0,0.2-0.1,0.2-0.2 C-13.1,22.8-13.2,22.7-13.3,22.7z"/> </g> <g> <path class="st0" d="M-13.3,23.5h-2.1c-0.1,0-0.2,0.1-0.2,0.2c0,0.1,0.1,0.2,0.2,0.2h2.1c0.1,0,0.2-0.1,0.2-0.2 C-13.1,23.6-13.2,23.5-13.3,23.5z"/> </g> <g> <path class="st0" d="M-8.1,18.9l-1.2-2.1c-0.1-0.1-0.2-0.2-0.3-0.2h-5.9c-0.1,0-0.2,0.1-0.3,0.2l-1.3,2.1c0,0,0,0,0,0 c0,0,0,0,0,0.1c0,0,0,0,0,0c0,0,0,0,0,0.1c0,0,0,0,0,0c0,0,0,0,0,0V25c0,0.2,0.1,0.3,0.3,0.3h8.4c0.2,0,0.3-0.1,0.3-0.3v-5.9 c0,0,0,0,0,0C-8.1,19.1-8.1,19-8.1,18.9z M-8.7,24.7h-7.8v-5.3h2.6v-0.6h-2.4l0.9-1.5h2.2l-0.3,1.5v2.6h1.8v-2.6l-0.3-1.5h2.2 l0.9,1.5h-2.4v0.6h2.6V24.7z"/> </g> </g> <g> <g> <path class="st0" d="M-1.4-7.7h0.7c0.1,0,0.2-0.1,0.2-0.2S-0.6-8-0.7-8h-0.7C-1.5-8-1.6-8-1.6-7.9S-1.5-7.7-1.4-7.7z"/> </g> <g> <path class="st0" d="M0.7-7.3h-2.1c-0.1,0-0.2,0.1-0.2,0.2c0,0.1,0.1,0.2,0.2,0.2h2.1c0.1,0,0.2-0.1,0.2-0.2 C0.8-7.2,0.8-7.3,0.7-7.3z"/> </g> <g> <path class="st0" d="M0.7-6.5h-2.1c-0.1,0-0.2,0.1-0.2,0.2c0,0.1,0.1,0.2,0.2,0.2h2.1c0.1,0,0.2-0.1,0.2-0.2 C0.8-6.5,0.8-6.5,0.7-6.5z"/> </g> <g> <path class="st0" d="M5.7-11L4.5-13c-0.1-0.1-0.2-0.2-0.3-0.2h-5.8c-0.1,0-0.2,0.1-0.3,0.2L-3-11c0,0,0,0,0,0c0,0,0,0,0,0.1 c0,0,0,0,0,0c0,0,0,0,0,0.1c0,0,0,0,0,0c0,0,0,0,0,0v5.8c0,0.2,0.1,0.3,0.3,0.3h8.2c0.2,0,0.3-0.1,0.3-0.3v-5.7c0,0,0,0,0,0 C5.8-10.9,5.8-10.9,5.7-11z M5.2-5.4h-7.6v-5.1h2.6v-0.6h-2.4l0.9-1.5h2.2l-0.3,1.5v2.6h1.7v-2.6l-0.3-1.5h2.1l0.9,1.5H2.6v0.6 h2.5V-5.4z"/> </g> </g> <line class="style2" x1="-3.2" y1="-12.7" x2="-6" y2="-12.7"/> <line class="style2" x1="-4.2" y1="-10.7" x2="-8.3" y2="-10.7"/> <line class="style2" x1="-4.2" y1="-8.5" x2="-9.7" y2="-8.5"/> <line class="style2" x1="-4.2" y1="-6.3" x2="-9.7" y2="-6.3"/> <g> <path class="st0" d="M10.5,9.4l-3,0c-0.1,0-0.2,0.1-0.2,0.2l0,1.8c0,0.1,0.1,0.2,0.2,0.2l3,0c0.1,0,0.2-0.1,0.2-0.2l0-1.8 C10.7,9.5,10.7,9.4,10.5,9.4z"/> <path class="st0" d="M10.5,12.3l-3,0c-0.1,0-0.2,0.1-0.2,0.2l0,1.8c0,0.1,0.1,0.2,0.2,0.2l3,0c0.1,0,0.2-0.1,0.2-0.2l0-1.8 C10.7,12.4,10.7,12.3,10.5,12.3z M10.3,14.1l-2.6,0l0-1.4l2.6,0L10.3,14.1z"/> <path class="st0" d="M14.5,9.4l-3,0c-0.1,0-0.2,0.1-0.2,0.2l0,1.8c0,0.1,0.1,0.2,0.2,0.2l3,0c0.1,0,0.2-0.1,0.2-0.2l0-1.8 C14.7,9.5,14.6,9.4,14.5,9.4z M14.3,11.2l-2.6,0l0-1.4l2.6,0L14.3,11.2z"/> <path class="st0" d="M14.5,12.3l-3,0c-0.1,0-0.2,0.1-0.2,0.2l0,1.8c0,0.1,0.1,0.2,0.2,0.2l3,0c0.1,0,0.2-0.1,0.2-0.2l0-1.8 C14.7,12.4,14.6,12.3,14.5,12.3z M14.3,14.1l-2.6,0l0-1.4l2.6,0L14.3,14.1z"/> <path class="st0" d="M15.6,7.3l-9.2,0c-0.2,0-0.3,0.2-0.3,0.3l0,8c0,0.2,0.2,0.3,0.3,0.3l9.2,0c0.2,0,0.3-0.2,0.3-0.3l0-8 C16,7.4,15.8,7.3,15.6,7.3z M6.8,15.3l0-6.7l8.5,0l0,6.7L6.8,15.3z"/> </g></symbol>
  <symbol id='performance' viewBox="0 0 29.6 16" style="enable-background:new 0 0 29.6 16;"><g><g><path class="st0" d="M16,10.5h1.3c0.2,0,0.3-0.2,0.3-0.3c0-0.2-0.2-0.3-0.3-0.3H16c-0.2,0-0.3,0.2-0.3,0.3C15.6,10.3,15.8,10.5,16,10.5z"/></g><g><path class="st0" d="M19.9,11.2H16c-0.2,0-0.3,0.2-0.3,0.3s0.2,0.3,0.3,0.3h3.9c0.2,0,0.3-0.2,0.3-0.3S20.1,11.2,19.9,11.2z"/></g><g><path class="st0" d="M19.9,12.6H16c-0.2,0-0.3,0.2-0.3,0.3c0,0.2,0.2,0.3,0.3,0.3h3.9c0.2,0,0.3-0.2,0.3-0.3C20.3,12.8,20.1,12.6,19.9,12.6z"/></g><g><g><g><path class="st0" d="M4.7,14h-4c-0.2,0-0.4,0.2-0.4,0.5c0,0.3,0.2,0.5,0.4,0.5h4c0.2,0,0.4-0.2,0.4-0.5C5.1,14.2,4.9,14,4.7,14z"/></g><g><path class="st0" d="M8.4,14h-4c-0.2,0-0.4,0.2-0.4,0.5c0,0.3,0.2,0.5,0.4,0.5h4c0.2,0,0.4-0.2,0.4-0.5C8.8,14.2,8.6,14,8.4,14z"/></g><g><path class="st0" d="M11.2,14h-4c-0.2,0-0.4,0.2-0.4,0.5C6.9,14.8,7,15,7.2,15h4c0.2,0,0.4-0.2,0.4-0.5C11.6,14.2,11.4,14,11.2,14z"/></g></g><g><g><path class="st0" d="M4.8,9.9h-4c-0.2,0-0.4,0.2-0.4,0.5c0,0.3,0.2,0.5,0.4,0.5h4c0.2,0,0.4-0.2,0.4-0.5C5.1,10.1,5,9.9,4.8,9.9z"/></g><g><path class="st0" d="M8.5,9.9h-4c-0.2,0-0.4,0.2-0.4,0.5c0,0.3,0.2,0.5,0.4,0.5h4c0.2,0,0.4-0.2,0.4-0.5C8.9,10.1,8.7,9.9,8.5,9.9z"/></g><g><path class="st0" d="M11.3,9.9h-4c-0.2,0-0.4,0.2-0.4,0.5c0,0.3,0.2,0.5,0.4,0.5h4c0.2,0,0.4-0.2,0.4-0.5C11.6,10.1,11.5,9.9,11.3,9.9z"/></g></g><g><g><path class="st0" d="M7.4,5.7h-4C3.1,5.7,3,6,3,6.3c0,0.3,0.2,0.5,0.4,0.5h4c0.2,0,0.4-0.2,0.4-0.5C7.7,6,7.6,5.7,7.4,5.7z"/></g><g><path class="st0" d="M9.1,5.7H5C4.9,5.7,4.7,6,4.7,6.3c0,0.3,0.2,0.5,0.4,0.5h4c0.2,0,0.4-0.2,0.4-0.5C9.4,6,9.3,5.7,9.1,5.7z"/></g><g><path class="st0" d="M11.2,5.7h-4C7,5.7,6.8,6,6.8,6.3c0,0.3,0.2,0.5,0.4,0.5h4c0.2,0,0.4-0.2,0.4-0.5C11.6,6,11.4,5.7,11.2,5.7z"/></g></g><g><g><path class="st0" d="M10.6,2h-4C6.4,2,6.2,2.2,6.2,2.5C6.2,2.8,6.4,3,6.6,3h4C10.8,3,11,2.8,11,2.5C11,2.2,10.8,2,10.6,2z"/></g><g><path class="st0" d="M12.4,2h-4C8.1,2,8,2.2,8,2.5C8,2.8,8.1,3,8.3,3h4c0.2,0,0.4-0.2,0.4-0.5C12.7,2.2,12.6,2,12.4,2z"/></g></g></g><g><path class="st0" d="M29.5,4.2l-2.3-3.9c-0.1-0.2-0.3-0.3-0.5-0.3H15.8c-0.2,0-0.4,0.1-0.5,0.3L13,4.3c0,0,0,0,0,0c0,0,0,0.1,0,0.1c0,0,0,0,0,0c0,0,0,0.1,0,0.1c0,0,0,0,0,0c0,0,0,0,0,0v10.8c0,0.3,0.3,0.6,0.6,0.6H29c0.3,0,0.6-0.3,0.6-0.6V4.6c0,0,0,0,0,0C29.6,4.4,29.5,4.3,29.5,4.2z M28.4,14.8H14.1V5.1h4.9V4h-4.4l1.6-2.8h4.1L19.7,4v4.8h3.2V4l-0.5-2.8h4L28,4h-4.3v1.2h4.8V14.8z"/></g></g></symbol>
  <symbol id='rightArrow' viewBox="0 0 16.3 26.8" style="enable-background:new 0 0 16.3 26.8;"><g><polygon fill="#666666" points="16.3,13.2 3.1,26.4 0.3,23.5 10.6,13.2 0.3,2.8 3.1,0"/></g></symbol>
  <symbol id='leftArrow' viewBox="0 0 16.3 26.8" style="enable-background:new 0 0 16.3 26.8;"><g><polygon fill="#666666" points="0.3,13.2 13.4,0 16.3,2.8 5.9,13.2 16.3,23.5 13.4,26.4"/></g></symbol>
  <symbol id='pageArrow' viewBox='0 0 16 16'><path d='M10.7 7.5L6 4.1c-.2-.1-.4-.1-.6 0-.2.1-.3.3-.3.5v6.9c0 .2.1.4.3.5h.2c.1 0 .2 0 .3-.1l4.7-3.4c.1-.1.2-.3.2-.5.1-.2 0-.4-.1-.5z'/></symbol>
  <symbol id="no-chart" viewBox="0 0 88.1 47.1" style="enable-background:new 0 0 88.1 47.1;"><g><g><g><g><path fill="#4FA9C7" d="M75.7,10.4L58.2,33.7c1.5,0.6,2.9,1.6,3.8,2.9l17.4-23.2C77.9,12.8,76.6,11.8,75.7,10.4z"/><path fill="#4FA9C7" d="M34.7,10.5c-0.9,1.3-2.3,2.3-3.8,2.9l17.9,23.2c0.9-1.3,2.3-2.3,3.8-2.9L34.7,10.5z"/><path fill="#4FA9C7" d="M20.6,9.1l-10.3,9.1c1.4,0.9,2.4,2.2,3,3.7l10.5-9.2C22.4,11.8,21.3,10.6,20.6,9.1z"/><path fill="#76C8B3" d="M33.1,8.4c0.4-0.8,0.7-1.7,0.7-2.7c0-3.2-2.6-5.8-5.8-5.8c-3.2,0-5.8,2.6-5.8,5.8c0,0.6,0.1,1.1,0.3,1.6C23,9,24.2,10.3,25.7,11c0.7,0.3,1.5,0.5,2.4,0.5c0.4,0,0.9-0.1,1.3-0.2C31,11,32.4,9.9,33.1,8.4z"/><path fill="#76C8B3" d="M60.5,38.6c-0.2-0.4-0.4-0.7-0.7-1c0,0,0,0,0,0c-0.2-0.3-0.5-0.5-0.8-0.8c0,0-0.1-0.1-0.1-0.1c-0.3-0.2-0.6-0.4-0.9-0.6c0,0-0.1-0.1-0.1-0.1c-0.4-0.2-0.7-0.3-1.1-0.4h0c-0.4-0.1-0.8-0.1-1.2-0.1c-0.9,0-1.7,0.2-2.4,0.6c0,0-0.1,0-0.1,0.1c-0.3,0.2-0.6,0.4-0.9,0.6c0,0-0.1,0-0.1,0.1c-0.3,0.2-0.6,0.5-0.8,0.8c0,0,0,0,0,0c-0.3,0.3-0.5,0.6-0.7,1c0,0,0,0,0,0l0,0c-0.4,0.8-0.7,1.7-0.7,2.7c0,3.2,2.6,5.8,5.8,5.8c3.2,0,5.8-2.6,5.8-5.8C61.2,40.4,60.9,39.4,60.5,38.6L60.5,38.6z"/><path fill="#76C8B3" d="M82.4,0c-3.2,0-5.8,2.6-5.8,5.8c0,0.9,0.2,1.8,0.6,2.6c0.7,1.5,2.1,2.6,3.7,3c0.4,0.1,0.9,0.2,1.4,0.2c3.2,0,5.8-2.6,5.8-5.8C88.1,2.6,85.6,0,82.4,0z"/><path fill="#76C8B3" d="M8.4,19.8c-0.8-0.4-1.7-0.6-2.6-0.6c-3.2,0-5.8,2.6-5.8,5.8c0,3.2,2.6,5.8,5.8,5.8c3.2,0,5.8-2.6,5.8-5.8c0-0.5-0.1-0.9-0.2-1.4C10.9,21.9,9.8,20.6,8.4,19.8z"/></g></g></g></g></symbol>
  <symbol id="question" viewBox="0 0 10 10" style="enable-background:new 0 0 7.3 10.7;"><g><text x="2.5" y="-3" transform="matrix(0.9 0 0 1 -2.441406e-04 10.5)">?</text></g></symbol>
  <symbol id="exclaim" viewBox="0 0 10 10" style="enable-background:new 0 0 7.3 10.7;"><g><text  x="3.5" y="-3" transform="matrix(0.9 0 0 1 -2.441406e-04 10.5)">!</text></g></symbol>
  <symbol id='plus' viewBox='0 0 16 16'><path d='M8 2c-.3 0-.6.3-.6.6v4.8H2.6c-.3 0-.6.3-.6.6s.3.6.6.6h4.8v4.8c0 .3.3.6.6.6.2 0 .3-.1.4-.2.1-.1.2-.3.2-.4V8.6h4.8c.2 0 .3-.1.4-.2.1-.1.2-.2.2-.4 0-.3-.3-.6-.6-.6H8.6V2.6c0-.3-.3-.6-.6-.6z'/></symbol>
  <symbol id="search" viewBox="0 0 16 16"><path d="M14.8 12.8l-3.5-3.5c.9-1.6 1.1-3.6 0-5.6C10.5 2 8.7 1 6.8 1 4.1 1 1.7 2.8 1.1 5.4c-.7 3.6 2 6.7 5.4 6.7 1 0 2-.3 2.8-.8l3.4 3.4.1.1c.3.3.7.3.9 0l1.1-1.1c.3-.2.3-.7 0-.9zm-8.3-2.1c-2.9 0-5-2.9-3.7-5.9.6-1.5 2.2-2.4 3.7-2.4 1.1 0 2.1.4 2.9 1.2.8.8 1.2 1.8 1.2 2.9 0 1.1-.4 2.1-1.2 2.9-.7.9-1.8 1.3-2.9 1.3z"/></symbol>
  <symbol id="audience" viewBox="0 0 16 16"><path class="a" d="M3.24,9.82h0A2.38,2.38,0,0,0,5.12,9.1l.29-.38a3.37,3.37,0,0,0,2.57,2,3.23,3.23,0,0,0,2.57-1.94c.08.12.17.24.29.37a2.38,2.38,0,0,0,1.88.73c.55,0,1.59-.16,1.59-.46a.17.17,0,0,0-.15-.17,1.26,1.26,0,0,0-.43,0c-.33,0-.65-.46-.95-1.15l.12,0a1.72,1.72,0,0,0,.91-.3c.11-.07.44-.31.44-.53s-.14-.28-.49-.17h-.05c-.56,0-1.39-2.22-1.82-3.86l0-.1v0h0a4,4,0,0,0-7.76,0h0v0l0,.1C3.63,4.86,2.8,7.07,2.24,7.07H2.19c-.35-.1-.49,0-.49.17s.69.83,1.35.83l.11,0c-.3.69-.63,1.14-1,1.14H2c-.08,0-.32,0-.32.18S2.68,9.82,3.24,9.82Z"/><path class="a" d="M16,17.07a6.31,6.31,0,0,0-1.41-4,4,4,0,0,0-3-1.48h-.54L8.83,17.07Z"/><path class="a" d="M7.14,17.07,4.91,11.64H4.49a4.12,4.12,0,0,0-3.08,1.47,6.3,6.3,0,0,0-1.41,4Z"/></symbol>
  <symbol id="product" viewBox="0 0 16 13.98"><path class="a" d="M15.44,0H.56A.56.56,0,0,0,0,.56V13.43A.56.56,0,0,0,.56,14H15.44a.56.56,0,0,0,.56-.56V.56A.56.56,0,0,0,15.44,0ZM1.11,12.87V2.07H14.89v10.8Z"/><rect class="a" x="2.03" y="3.54" width="11.95" height="1.89" rx="0.33" ry="0.33"/><path class="a" d="M7.19,6.35H2.33A.33.33,0,0,0,2,6.68v4.48a.33.33,0,0,0,.33.33H7.19a.33.33,0,0,0,.33-.33V6.68A.33.33,0,0,0,7.19,6.35Zm-.33,4.48H2.66V7h4.2Z"/><path class="a" d="M13.64,6.35H8.77a.33.33,0,0,0-.33.33v4.48a.33.33,0,0,0,.33.33h4.87a.33.33,0,0,0,.33-.33V6.68A.33.33,0,0,0,13.64,6.35Zm-.33,4.48H9.1V7h4.2Z"/></symbol>
  <symbol id="strategy" viewbox="0 0 16 16"><path class="style3" d="M16.26,0H.47A.47.47,0,0,0,0,.47V10.86a.47.47,0,0,0,.47.47h15.8a.47.47,0,0,0,.47-.47V.47A.47.47,0,0,0,16.26,0ZM15.8,10.39H.93V.93H15.8Z"/><path class="style3" d="M5.38,8.69l.34,0A2.79,2.79,0,0,0,8.31,4.88a.22.22,0,0,0-.2-.13A16.35,16.35,0,0,0,6,5.65l.28-2.27a.22.22,0,0,0-.19-.24l-.34,0a2.79,2.79,0,0,0-.33,5.57Z"/><path class="style3" d="M 10.78 8.29 h 3.08 a 0.35 0.35 0 1 0 0 -0.7 H 10.78 a 0.35 0.35 0 1 0 0 0.7 Z"/><path class="style3" d="M 10.78 6.13 h 3.08 a 0.35 0.35 0 1 0 0 -0.7 H 10.78 a 0.35 0.35 0 1 0 0 0.7 Z"/><path class="style3" d="M M 10.78 4 h 3.08 a 0.35 0.35 0 1 0 0 -0.7 H 10.78 a 0.35 0.35 0 1 0 0 0.7 Z"/><path class="style3" d="M 15 16 l -4.86 -2.66 V 12.1 H 6.93 v 1.13 L 2 16 a 0.35 0.35 0 0 0 0.31 0.62 L 8.51 14 l 6.16 2.69 a 0.35 0.35 0 0 0 0.14 0 h 0 A 0.35 0.35 0 0 0 15 16 Z"/></symbol>
  <symbol id="agency-fees" viewBox="0 0 18 18"><path class="style3" d="M11.31,9a2.44,2.44,0,0,0-.78-.48q-.44-.17-1.18-.37V5.65a1.35,1.35,0,0,1,.95,1,.74.74,0,0,0,.76.63A.72.72,0,0,0,11.58,7a.71.71,0,0,0,.22-.52,1.45,1.45,0,0,0-.15-.59,2.54,2.54,0,0,0-.41-.63,2.17,2.17,0,0,0-.8-.6,3.71,3.71,0,0,0-1.09-.26V3.56c0-.33-.13-.49-.38-.49s-.38.17-.38.5v.88a2.92,2.92,0,0,0-1.89.76A2.28,2.28,0,0,0,6,6.9a2.27,2.27,0,0,0,.33,1.29A2.25,2.25,0,0,0,7.25,9a7.31,7.31,0,0,0,1.34.49v2.77a1.62,1.62,0,0,1-.64-.33,1.45,1.45,0,0,1-.36-.47,7.47,7.47,0,0,1-.28-.75A.65.65,0,0,0,7,10.33a.79.79,0,0,0-.45-.13.75.75,0,0,0-.56.23.72.72,0,0,0-.22.52,2.05,2.05,0,0,0,.17.79,2.61,2.61,0,0,0,.52.78,2.9,2.9,0,0,0,.87.62,3.78,3.78,0,0,0,1.22.33v1.11a.75.75,0,0,0,.09.41.33.33,0,0,0,.3.13.29.29,0,0,0,.3-.16,1.41,1.41,0,0,0,.07-.51v-1A3.35,3.35,0,0,0,10.82,13a2.53,2.53,0,0,0,.94-1,2.65,2.65,0,0,0,.32-1.27,2.47,2.47,0,0,0-.2-1A2.23,2.23,0,0,0,11.31,9ZM8.59,7.9a2.42,2.42,0,0,1-.8-.44.92.92,0,0,1-.26-.71A.93.93,0,0,1,7.81,6a2.08,2.08,0,0,1,.78-.39Zm1.69,3.9a1.64,1.64,0,0,1-.93.48V9.68a2.6,2.6,0,0,1,.94.48,1,1,0,0,1,.32.8A1.22,1.22,0,0,1,10.27,11.8Z"/><path fill="#5A5A5A" d="M9,0a9,9,0,1,0,9,9A9,9,0,0,0,9,0ZM9,16.7A7.72,7.72,0,1,1,16.7,9,7.73,7.73,0,0,1,9,16.7Z"/></symbol>
  <symbol id="fees" viewBox="0 0 18 18"><path d="M17.2971429,8.04 L16.4571429,6.85714286 L17.1428571,6.17142857 L11.1428571,0.171428571 C10.9003653,-0.0508259796 10.5282061,-0.0508259796 10.2857143,0.171428571 L0.18,10.2857143 C-0.0553333412,10.5229695 -0.0553333412,10.9056019 0.18,11.1428571 L3.21428571,14.1771429 L3.21428571,15.1542857 C3.21428571,16.7228571 6.09428571,17.5457143 8.94,17.5457143 C11.7857143,17.5457143 14.6657143,16.6885714 14.6657143,15.1542857 L14.6657143,10.7057143 L17.1428571,8.89714286 C17.4157348,8.69728617 17.4768973,8.31502067 17.28,8.04 L17.2971429,8.04 Z M3.21428571,10.86 C3.21428571,10.86 3.21428571,10.92 3.21428571,10.9542857 L3.21428571,12.4457143 L1.5,10.7314286 L10.7142857,1.47428571 L15.4285714,6.17142857 L12.5485714,9.05142857 C11.3734272,8.71248341 10.1543015,8.5507037 8.93142857,8.57142857 C6.14571429,8.57142857 3.32571429,9.34285714 3.21428571,10.86 Z M8.93142857,16.5685714 C8.25412241,16.5707554 7.57771177,16.5191648 6.90857143,16.4142857 C6.17144125,16.3168473 5.45583132,16.0966597 4.79142857,15.7628571 C4.39714286,15.5485714 4.19142857,15.3257143 4.18285714,15.1542857 L4.18285714,15.1542857 C4.18285714,15.0171429 4.32,14.8457143 4.58571429,14.6657143 C4.99356547,14.8517951 5.4183817,14.9981845 5.85428571,15.1028571 L6.36857143,15.2142857 L6.36857143,15.2142857 C6.88087932,15.3171744 7.39898315,15.3887357 7.92,15.4285714 L8.14285714,15.4285714 L8.94,15.4285714 C10.4265706,15.4671805 11.9053631,15.2017562 13.2857143,14.6485714 C13.5514286,14.8285714 13.6885714,15 13.6885714,15.1371429 C13.7142857,15.6257143 12,16.5685714 8.93142857,16.5685714 Z M13.2771429,13.5428571 C13.098343,13.660286 12.9089458,13.760724 12.7114286,13.8428571 C12.4603666,13.948186 12.2026715,14.0369476 11.94,14.1085714 C11.1335319,14.320932 10.3051198,14.4388657 9.47142857,14.46 L8.85428571,14.46 C8.39327524,14.457702 7.93268008,14.4319544 7.47428571,14.3828571 L7.22571429,14.3828571 C6.7830395,14.32827 6.3447961,14.2423399 5.91428571,14.1257143 C5.65163586,14.0540203 5.39394531,13.9652602 5.14285714,13.86 C4.94533991,13.7778668 4.75594267,13.6774289 4.57714286,13.56 C4.31142857,13.38 4.17428571,13.2085714 4.17428571,13.0714286 C4.17428571,12.9342857 4.31142857,12.7628571 4.57714286,12.5828571 C5.0554359,12.7984454 5.55542497,12.9622349 6.06857143,13.0714286 C6.61156493,13.1822977 7.16136174,13.2567493 7.71428571,13.2942857 L8.22857143,13.2942857 L8.88857143,13.2942857 L8.88857143,13.2942857 C9.24857143,13.2942857 9.61714286,13.2942857 9.97714286,13.2942857 L10.08,13.2942857 C10.4742857,13.2942857 10.86,13.2171429 11.2371429,13.1485714 L11.7428571,13.0457143 C12.2560036,12.9365207 12.7559927,12.7727311 13.2342857,12.5571429 C13.5,12.7371429 13.6371429,12.9085714 13.6371429,13.0457143 C13.6371429,13.1828571 13.5428571,13.3542857 13.2771429,13.5342857 L13.2771429,13.5428571 Z M13.9285714,9.72857143 L13.6457143,9.56571429 C13.6457143,9.56571429 15.5057143,7.78285714 15.5228571,7.80857143 C15.54,7.83428571 15.8485714,8.13428571 15.9514286,8.27142857 L13.9285714,9.72857143 Z" id="Shape"></path></symbol>
</svg>